# xmcd
#
# Track frame offsets: 
#        150
#        8674
#        17127
#        30403
#        43875
#        59859
#        72781
#        89409
#        100464
#        114466
#        123842
#        156931
#        169876
#        184240
#        226635
#        241911
#        263109
#
# Disc length: 3720 seconds
#
# Revision: 1
# Processed by: cddbd v1.5.2PL0 Copyright (c) Steve Scherf et al.
# Submitted via: ExactAudioCopy v1.3
#
DISCID=df0e8611
DTITLE=Various Artist - Paris, Paris
DYEAR=2004
DGENRE=Jazz
TTITLE0=Ф. Синатра и оркестр Н. Риддла- Я люблю Париж (I Love Paris) (
TTITLE0=1960)
TTITLE1=М. Легран трио- Под небом Парижа (Sous le Ciel de Paris) (1959
TTITLE1=)
TTITLE2=Модерн джаз-квартет- Утро в Париже (Morning In Paris) (1957)
TTITLE3=Б. Пейффер- Ревность (Jalousie) (1952)
TTITLE4=Модерн джаз-квартет- Вандом (Vendome) (1966)
TTITLE5=Б. Пейффер, П. Мишело, Ж.-Л. Виале- Полдень на Елисейских поля
TTITLE5=х (Midday On The Champs Elyses) (1952)
TTITLE6=С. Граппелли и оркестр М. Леграна- Осенние листья (Les feuille
TTITLE6=s Mortes) (1992)
TTITLE7=М. Легран трио- Последний раз, когда я видел Париж (Last Time 
TTITLE7=I Saw Paris) (19559) 
TTITLE8=Д. Эллингтон и его оркестр- Парижские лестницы (Paris Stairs) 
TTITLE8=(1957)
TTITLE9=М. Легран трио- Парижские каналы (Paris conaille) (1959)
TTITLE10=Л. Томпсон, С. Прайс и др.- Парижский блюз (Paris Blues) (195
TTITLE10=7)
TTITLE11=Ф. Синатра и оркестр Б. Мея- Апрель в Париже (April In Paris)
TTITLE11=(1957)
TTITLE12=М. Легран трио- Жизнь в розовом цвете (La vie en rose) (1959)
TTITLE13=Дж. Льюис, С. Дистель и др.- Полдень в Париже (Afternoon In P
TTITLE13=aris) (1957)
TTITLE14=Б. Пейффер, П. Мишело, Ж.-Л. Виале- Парижская баллада (Ballad
TTITLE14=In Paris) (1952)
TTITLE15=С. Граппелли и оркестр М. Леграна- Снова увидеть Париж (Revoi
TTITLE15=r Paris) (1992)
TTITLE16=М. Легран трио- Париж весной (Paris In The Spring) (1959)
EXTD=YEAR: 2004
EXTT0=
EXTT1=
EXTT2=
EXTT3=
EXTT4=
EXTT5=
EXTT6=
EXTT7=
EXTT8=
EXTT9=
EXTT10=
EXTT11=
EXTT12=
EXTT13=
EXTT14=
EXTT15=
EXTT16=
PLAYORDER=
